<svg width="152" height="58" viewBox="0 0 152 58" fill="none" xmlns="http://www.w3.org/2000/svg">
<path d="M13.4724 20.223C13.5919 19.984 13.7804 19.7864 14.0135 19.6558C14.2466 19.5252 14.5136 19.4676 14.7798 19.4906C15.046 19.5136 15.2991 19.6161 15.5064 19.7847C15.7137 19.9533 15.8655 20.1803 15.9421 20.4363L18.9751 30.5484L21.4748 25.5557C21.5856 25.3343 21.7558 25.1481 21.9663 25.0179C22.1769 24.8878 22.4196 24.8189 22.6672 24.8189C22.9147 24.8189 23.1574 24.8878 23.368 25.0179C23.5786 25.1481 23.7488 25.3343 23.8595 25.5557L26.1542 30.1518H34.2166C35.4169 27.677 36.0259 24.9573 35.9956 22.2069C35.9431 17.0317 31.7911 12.8206 26.74 12.8206C22.733 12.8206 20.0741 15.2819 18.6643 17.07C17.2578 15.2794 14.5956 12.8206 10.5886 12.8206C5.53756 12.8206 1.38556 17.0317 1.33307 22.2069C1.31149 23.994 1.56239 25.774 2.07715 27.4855H9.84121L13.4724 20.223Z" fill="#485C46"/>
<path d="M24.1379 32.0814L22.6639 29.1335L19.8568 34.7478C19.746 34.9692 19.5758 35.1553 19.3652 35.2854C19.1546 35.4155 18.912 35.4844 18.6644 35.4844C18.6272 35.4844 18.5889 35.4827 18.5494 35.4794C18.2826 35.4572 18.0286 35.3553 17.8205 35.1867C17.6125 35.0182 17.46 34.7909 17.3829 34.5345L14.3499 24.4224L11.8502 29.4151C11.74 29.6353 11.571 29.8207 11.3619 29.9507C11.1527 30.0808 10.9116 30.1503 10.6654 30.1517H3.11213C3.88981 31.7787 4.92496 33.3802 6.21759 34.9561C7.78156 36.8625 10.6171 39.9105 17.1654 44.3558C17.607 44.6585 18.1299 44.8204 18.6653 44.8204C19.2006 44.8204 19.7235 44.6585 20.1651 44.3558C26.7135 39.9105 29.5489 36.8625 31.1129 34.9561C31.6762 34.2704 32.2046 33.5569 32.6961 32.818H25.3303C25.0828 32.818 24.8401 32.7491 24.6295 32.6191C24.4189 32.489 24.2487 32.3028 24.1379 32.0814ZM35.9957 30.1517H34.2167C33.7735 31.0753 33.2654 31.9663 32.6961 32.818H35.9957C36.3493 32.818 36.6884 32.6776 36.9384 32.4275C37.1884 32.1775 37.3288 31.8384 37.3288 31.4848C37.3288 31.1313 37.1884 30.7922 36.9384 30.5422C36.6884 30.2921 36.3493 30.1517 35.9957 30.1517ZM1.33317 27.4853C0.979594 27.4853 0.640496 27.6258 0.390477 27.8758C0.140459 28.1258 0 28.4649 0 28.8185C0 29.1721 0.140459 29.5112 0.390477 29.7612C0.640496 30.0112 0.979594 30.1517 1.33317 30.1517H3.11213C2.69978 29.2905 2.35381 28.3992 2.07725 27.4853H1.33317Z" fill="#485C46"/>
<path d="M52.9641 33.288C51.6361 33.288 50.4121 33.08 49.2921 32.664C48.1881 32.232 47.2201 31.624 46.3881 30.84C45.5721 30.056 44.9321 29.136 44.4681 28.08C44.0201 27.024 43.7961 25.864 43.7961 24.6C43.7961 23.336 44.0201 22.176 44.4681 21.12C44.9321 20.064 45.5801 19.144 46.4121 18.36C47.2441 17.576 48.2201 16.976 49.3401 16.56C50.4601 16.128 51.6921 15.912 53.0361 15.912C54.5241 15.912 55.8601 16.16 57.0441 16.656C58.2441 17.152 59.2521 17.872 60.0681 18.816L57.5721 21.12C56.9641 20.48 56.3001 20.008 55.5801 19.704C54.8601 19.384 54.0761 19.224 53.2281 19.224C52.4121 19.224 51.6681 19.352 50.9961 19.608C50.3241 19.864 49.7401 20.232 49.2441 20.712C48.7641 21.192 48.3881 21.76 48.1161 22.416C47.8601 23.072 47.7321 23.8 47.7321 24.6C47.7321 25.384 47.8601 26.104 48.1161 26.76C48.3881 27.416 48.7641 27.992 49.2441 28.488C49.7401 28.968 50.3161 29.336 50.9721 29.592C51.6441 29.848 52.3801 29.976 53.1801 29.976C53.9481 29.976 54.6921 29.856 55.4121 29.616C56.1481 29.36 56.8601 28.936 57.5481 28.344L59.7561 31.152C58.8441 31.84 57.7801 32.368 56.5641 32.736C55.3641 33.104 54.1641 33.288 52.9641 33.288ZM56.2041 30.648V24.336H59.7561V31.152L56.2041 30.648ZM63.1037 33V20.088H66.6797V23.736L66.1757 22.68C66.5597 21.768 67.1757 21.08 68.0237 20.616C68.8717 20.136 69.9037 19.896 71.1197 19.896V23.352C70.9597 23.336 70.8157 23.328 70.6877 23.328C70.5597 23.312 70.4237 23.304 70.2797 23.304C69.2557 23.304 68.4237 23.6 67.7837 24.192C67.1597 24.768 66.8477 25.672 66.8477 26.904V33H63.1037ZM79.6602 33.192C78.1882 33.192 76.8922 32.904 75.7722 32.328C74.6682 31.752 73.8122 30.968 73.2042 29.976C72.5962 28.968 72.2922 27.824 72.2922 26.544C72.2922 25.248 72.5882 24.104 73.1802 23.112C73.7882 22.104 74.6122 21.32 75.6522 20.76C76.6922 20.184 77.8682 19.896 79.1802 19.896C80.4442 19.896 81.5802 20.168 82.5882 20.712C83.6122 21.24 84.4202 22.008 85.0122 23.016C85.6042 24.008 85.9002 25.2 85.9002 26.592C85.9002 26.736 85.8922 26.904 85.8762 27.096C85.8602 27.272 85.8442 27.44 85.8282 27.6H75.3402V25.416H83.8602L82.4202 26.064C82.4202 25.392 82.2842 24.808 82.0122 24.312C81.7402 23.816 81.3642 23.432 80.8842 23.16C80.4042 22.872 79.8442 22.728 79.2042 22.728C78.5642 22.728 77.9962 22.872 77.5002 23.16C77.0202 23.432 76.6442 23.824 76.3722 24.336C76.1002 24.832 75.9642 25.424 75.9642 26.112V26.688C75.9642 27.392 76.1162 28.016 76.4202 28.56C76.7402 29.088 77.1802 29.496 77.7402 29.784C78.3162 30.056 78.9882 30.192 79.7562 30.192C80.4442 30.192 81.0442 30.088 81.5562 29.88C82.0842 29.672 82.5642 29.36 82.9962 28.944L84.9882 31.104C84.3962 31.776 83.6522 32.296 82.7562 32.664C81.8602 33.016 80.8282 33.192 79.6602 33.192ZM95.9612 33V30.48L95.7212 29.928V25.416C95.7212 24.616 95.4732 23.992 94.9772 23.544C94.4972 23.096 93.7532 22.872 92.7452 22.872C92.0572 22.872 91.3772 22.984 90.7052 23.208C90.0492 23.416 89.4892 23.704 89.0252 24.072L87.6812 21.456C88.3852 20.96 89.2332 20.576 90.2252 20.304C91.2172 20.032 92.2252 19.896 93.2492 19.896C95.2172 19.896 96.7452 20.36 97.8332 21.288C98.9212 22.216 99.4652 23.664 99.4652 25.632V33H95.9612ZM92.0252 33.192C91.0172 33.192 90.1532 33.024 89.4332 32.688C88.7132 32.336 88.1612 31.864 87.7772 31.272C87.3932 30.68 87.2012 30.016 87.2012 29.28C87.2012 28.512 87.3852 27.84 87.7532 27.264C88.1372 26.688 88.7372 26.24 89.5532 25.92C90.3692 25.584 91.4332 25.416 92.7452 25.416H96.1772V27.6H93.1532C92.2732 27.6 91.6652 27.744 91.3292 28.032C91.0092 28.32 90.8492 28.68 90.8492 29.112C90.8492 29.592 91.0332 29.976 91.4012 30.264C91.7852 30.536 92.3052 30.672 92.9612 30.672C93.5852 30.672 94.1452 30.528 94.6412 30.24C95.1372 29.936 95.4972 29.496 95.7212 28.92L96.2972 30.648C96.0252 31.48 95.5292 32.112 94.8092 32.544C94.0892 32.976 93.1612 33.192 92.0252 33.192ZM108.134 33.192C106.614 33.192 105.43 32.808 104.582 32.04C103.734 31.256 103.31 30.096 103.31 28.56V17.232H107.054V28.512C107.054 29.056 107.198 29.48 107.486 29.784C107.774 30.072 108.166 30.216 108.662 30.216C109.254 30.216 109.758 30.056 110.174 29.736L111.182 32.376C110.798 32.648 110.334 32.856 109.79 33C109.262 33.128 108.71 33.192 108.134 33.192ZM101.318 23.256V20.376H110.27V23.256H101.318ZM87.3868 46V43.052L87.6398 43.734L84.3288 38.3H85.5058L88.2888 42.887H87.6508L90.4448 38.3H91.5338L88.2338 43.734L88.4758 43.052V46H87.3868ZM94.3376 46.066C93.7509 46.066 93.2303 45.9377 92.7756 45.681C92.3209 45.4243 91.9616 45.0723 91.6976 44.625C91.4336 44.1703 91.3016 43.657 91.3016 43.085C91.3016 42.5057 91.4336 41.9923 91.6976 41.545C91.9616 41.0977 92.3209 40.7493 92.7756 40.5C93.2303 40.2433 93.7509 40.115 94.3376 40.115C94.9169 40.115 95.4339 40.2433 95.8886 40.5C96.3506 40.7493 96.7099 41.0977 96.9666 41.545C97.2306 41.985 97.3626 42.4983 97.3626 43.085C97.3626 43.6643 97.2306 44.1777 96.9666 44.625C96.7099 45.0723 96.3506 45.4243 95.8886 45.681C95.4339 45.9377 94.9169 46.066 94.3376 46.066ZM94.3376 45.142C94.7116 45.142 95.0453 45.0577 95.3386 44.889C95.6393 44.7203 95.8739 44.482 96.0426 44.174C96.2113 43.8587 96.2956 43.4957 96.2956 43.085C96.2956 42.667 96.2113 42.3077 96.0426 42.007C95.8739 41.699 95.6393 41.4607 95.3386 41.292C95.0453 41.1233 94.7116 41.039 94.3376 41.039C93.9636 41.039 93.6299 41.1233 93.3366 41.292C93.0433 41.4607 92.8086 41.699 92.6326 42.007C92.4566 42.3077 92.3686 42.667 92.3686 43.085C92.3686 43.4957 92.4566 43.8587 92.6326 44.174C92.8086 44.482 93.0433 44.7203 93.3366 44.889C93.6299 45.0577 93.9636 45.142 94.3376 45.142ZM101.375 48.2C100.84 48.2 100.319 48.123 99.813 47.969C99.3144 47.8223 98.9074 47.6097 98.592 47.331L99.098 46.517C99.3694 46.7517 99.703 46.935 100.099 47.067C100.495 47.2063 100.909 47.276 101.342 47.276C102.031 47.276 102.537 47.1147 102.86 46.792C103.183 46.4693 103.344 45.978 103.344 45.318V44.086L103.454 42.931L103.399 41.765V40.17H104.4V45.208C104.4 46.2347 104.143 46.99 103.63 47.474C103.117 47.958 102.365 48.2 101.375 48.2ZM101.243 45.758C100.678 45.758 100.172 45.6407 99.725 45.406C99.285 45.164 98.933 44.8303 98.669 44.405C98.4124 43.9797 98.284 43.4883 98.284 42.931C98.284 42.3663 98.4124 41.875 98.669 41.457C98.933 41.0317 99.285 40.7017 99.725 40.467C100.172 40.2323 100.678 40.115 101.243 40.115C101.742 40.115 102.196 40.2177 102.607 40.423C103.018 40.621 103.344 40.929 103.586 41.347C103.835 41.765 103.96 42.293 103.96 42.931C103.96 43.5617 103.835 44.086 103.586 44.504C103.344 44.922 103.018 45.2373 102.607 45.45C102.196 45.6553 101.742 45.758 101.243 45.758ZM101.364 44.834C101.753 44.834 102.097 44.7533 102.398 44.592C102.699 44.4307 102.933 44.207 103.102 43.921C103.278 43.635 103.366 43.305 103.366 42.931C103.366 42.557 103.278 42.227 103.102 41.941C102.933 41.655 102.699 41.435 102.398 41.281C102.097 41.1197 101.753 41.039 101.364 41.039C100.975 41.039 100.627 41.1197 100.319 41.281C100.018 41.435 99.78 41.655 99.604 41.941C99.4354 42.227 99.351 42.557 99.351 42.931C99.351 43.305 99.4354 43.635 99.604 43.921C99.78 44.207 100.018 44.4307 100.319 44.592C100.627 44.7533 100.975 44.834 101.364 44.834ZM110.037 46V44.768L109.982 44.537V42.436C109.982 41.9887 109.85 41.644 109.586 41.402C109.329 41.1527 108.94 41.028 108.42 41.028C108.075 41.028 107.738 41.0867 107.408 41.204C107.078 41.314 106.799 41.4643 106.572 41.655L106.132 40.863C106.432 40.621 106.792 40.4377 107.21 40.313C107.635 40.181 108.079 40.115 108.541 40.115C109.34 40.115 109.956 40.3093 110.389 40.698C110.821 41.0867 111.038 41.6807 111.038 42.48V46H110.037ZM108.123 46.066C107.69 46.066 107.309 45.9927 106.979 45.846C106.656 45.6993 106.407 45.4977 106.231 45.241C106.055 44.977 105.967 44.68 105.967 44.35C105.967 44.0347 106.04 43.7487 106.187 43.492C106.341 43.2353 106.586 43.03 106.924 42.876C107.268 42.722 107.73 42.645 108.31 42.645H110.158V43.404H108.354C107.826 43.404 107.47 43.492 107.287 43.668C107.103 43.844 107.012 44.0567 107.012 44.306C107.012 44.592 107.125 44.823 107.353 44.999C107.58 45.1677 107.895 45.252 108.299 45.252C108.695 45.252 109.039 45.164 109.333 44.988C109.633 44.812 109.85 44.5553 109.982 44.218L110.191 44.944C110.051 45.2887 109.806 45.5637 109.454 45.769C109.102 45.967 108.658 46.066 108.123 46.066ZM118.344 46.088C117.757 46.088 117.196 46 116.661 45.824C116.126 45.6407 115.704 45.406 115.396 45.12L115.803 44.262C116.096 44.5187 116.47 44.7313 116.925 44.9C117.38 45.0687 117.853 45.153 118.344 45.153C118.791 45.153 119.154 45.1017 119.433 44.999C119.712 44.8963 119.917 44.757 120.049 44.581C120.181 44.3977 120.247 44.1923 120.247 43.965C120.247 43.701 120.159 43.4883 119.983 43.327C119.814 43.1657 119.591 43.0373 119.312 42.942C119.041 42.8393 118.74 42.7513 118.41 42.678C118.08 42.6047 117.746 42.5203 117.409 42.425C117.079 42.3223 116.775 42.194 116.496 42.04C116.225 41.886 116.005 41.6807 115.836 41.424C115.667 41.16 115.583 40.8227 115.583 40.412C115.583 40.016 115.686 39.653 115.891 39.323C116.104 38.9857 116.426 38.718 116.859 38.52C117.299 38.3147 117.856 38.212 118.531 38.212C118.978 38.212 119.422 38.2707 119.862 38.388C120.302 38.5053 120.683 38.674 121.006 38.894L120.643 39.774C120.313 39.554 119.965 39.3963 119.598 39.301C119.231 39.1983 118.876 39.147 118.531 39.147C118.098 39.147 117.743 39.202 117.464 39.312C117.185 39.422 116.98 39.5687 116.848 39.752C116.723 39.9353 116.661 40.1407 116.661 40.368C116.661 40.6393 116.745 40.8557 116.914 41.017C117.09 41.1783 117.314 41.3067 117.585 41.402C117.864 41.4973 118.168 41.5853 118.498 41.666C118.828 41.7393 119.158 41.8237 119.488 41.919C119.825 42.0143 120.13 42.139 120.401 42.293C120.68 42.447 120.903 42.6523 121.072 42.909C121.241 43.1657 121.325 43.4957 121.325 43.899C121.325 44.2877 121.219 44.6507 121.006 44.988C120.793 45.318 120.463 45.5857 120.016 45.791C119.576 45.989 119.019 46.088 118.344 46.088ZM124.78 46.066C124.193 46.066 123.739 45.9083 123.416 45.593C123.093 45.2777 122.932 44.8267 122.932 44.24V38.894H123.988V44.196C123.988 44.5113 124.065 44.7533 124.219 44.922C124.38 45.0907 124.608 45.175 124.901 45.175C125.231 45.175 125.506 45.0833 125.726 44.9L126.056 45.659C125.895 45.7983 125.7 45.901 125.473 45.967C125.253 46.033 125.022 46.066 124.78 46.066ZM121.942 41.039V40.17H125.66V41.039H121.942ZM129.786 46.066C129.287 46.066 128.847 45.9743 128.466 45.791C128.092 45.6077 127.798 45.329 127.586 44.955C127.38 44.5737 127.278 44.097 127.278 43.525V40.17H128.334V43.404C128.334 43.976 128.469 44.405 128.741 44.691C129.019 44.977 129.408 45.12 129.907 45.12C130.273 45.12 130.592 45.0467 130.864 44.9C131.135 44.746 131.344 44.526 131.491 44.24C131.637 43.9467 131.711 43.5947 131.711 43.184V40.17H132.767V46H131.766V44.427L131.931 44.845C131.74 45.2337 131.454 45.5343 131.073 45.747C130.691 45.9597 130.262 46.066 129.786 46.066ZM137.186 46.066C136.621 46.066 136.115 45.9413 135.668 45.692C135.228 45.4427 134.88 45.0943 134.623 44.647C134.366 44.1997 134.238 43.679 134.238 43.085C134.238 42.491 134.366 41.974 134.623 41.534C134.88 41.0867 135.228 40.7383 135.668 40.489C136.115 40.2397 136.621 40.115 137.186 40.115C137.677 40.115 138.121 40.225 138.517 40.445C138.913 40.665 139.228 40.995 139.463 41.435C139.705 41.875 139.826 42.425 139.826 43.085C139.826 43.745 139.709 44.295 139.474 44.735C139.247 45.175 138.935 45.5087 138.539 45.736C138.143 45.956 137.692 46.066 137.186 46.066ZM137.274 45.142C137.641 45.142 137.971 45.0577 138.264 44.889C138.565 44.7203 138.799 44.482 138.968 44.174C139.144 43.8587 139.232 43.4957 139.232 43.085C139.232 42.667 139.144 42.3077 138.968 42.007C138.799 41.699 138.565 41.4607 138.264 41.292C137.971 41.1233 137.641 41.039 137.274 41.039C136.9 41.039 136.566 41.1233 136.273 41.292C135.98 41.4607 135.745 41.699 135.569 42.007C135.393 42.3077 135.305 42.667 135.305 43.085C135.305 43.4957 135.393 43.8587 135.569 44.174C135.745 44.482 135.98 44.7203 136.273 44.889C136.566 45.0577 136.9 45.142 137.274 45.142ZM139.265 46V44.427L139.331 43.074L139.221 41.721V37.838H140.277V46H139.265ZM142.275 46V40.17H143.331V46H142.275ZM142.803 39.048C142.598 39.048 142.426 38.982 142.286 38.85C142.154 38.718 142.088 38.5567 142.088 38.366C142.088 38.168 142.154 38.003 142.286 37.871C142.426 37.739 142.598 37.673 142.803 37.673C143.009 37.673 143.177 37.739 143.309 37.871C143.449 37.9957 143.518 38.1533 143.518 38.344C143.518 38.542 143.452 38.7107 143.32 38.85C143.188 38.982 143.016 39.048 142.803 39.048ZM147.844 46.066C147.258 46.066 146.737 45.9377 146.282 45.681C145.828 45.4243 145.468 45.0723 145.204 44.625C144.94 44.1703 144.808 43.657 144.808 43.085C144.808 42.5057 144.94 41.9923 145.204 41.545C145.468 41.0977 145.828 40.7493 146.282 40.5C146.737 40.2433 147.258 40.115 147.844 40.115C148.424 40.115 148.941 40.2433 149.395 40.5C149.857 40.7493 150.217 41.0977 150.473 41.545C150.737 41.985 150.869 42.4983 150.869 43.085C150.869 43.6643 150.737 44.1777 150.473 44.625C150.217 45.0723 149.857 45.4243 149.395 45.681C148.941 45.9377 148.424 46.066 147.844 46.066ZM147.844 45.142C148.218 45.142 148.552 45.0577 148.845 44.889C149.146 44.7203 149.381 44.482 149.549 44.174C149.718 43.8587 149.802 43.4957 149.802 43.085C149.802 42.667 149.718 42.3077 149.549 42.007C149.381 41.699 149.146 41.4607 148.845 41.292C148.552 41.1233 148.218 41.039 147.844 41.039C147.47 41.039 147.137 41.1233 146.843 41.292C146.55 41.4607 146.315 41.699 146.139 42.007C145.963 42.3077 145.875 42.667 145.875 43.085C145.875 43.4957 145.963 43.8587 146.139 44.174C146.315 44.482 146.55 44.7203 146.843 44.889C147.137 45.0577 147.47 45.142 147.844 45.142Z" fill="#343A40"/>
<path d="M123.944 23.76H132.008V26.88H123.944V23.76ZM124.232 33H120.344V16.2H133.04V19.32H124.232V33ZM135.408 33V20.088H139.152V33H135.408ZM137.28 18.288C136.592 18.288 136.032 18.088 135.6 17.688C135.168 17.288 134.952 16.792 134.952 16.2C134.952 15.608 135.168 15.112 135.6 14.712C136.032 14.312 136.592 14.112 137.28 14.112C137.968 14.112 138.528 14.304 138.96 14.688C139.392 15.056 139.608 15.536 139.608 16.128C139.608 16.752 139.392 17.272 138.96 17.688C138.544 18.088 137.984 18.288 137.28 18.288ZM147.907 33.192C146.387 33.192 145.203 32.808 144.355 32.04C143.507 31.256 143.083 30.096 143.083 28.56V17.232H146.827V28.512C146.827 29.056 146.971 29.48 147.259 29.784C147.547 30.072 147.939 30.216 148.435 30.216C149.027 30.216 149.531 30.056 149.947 29.736L150.955 32.376C150.571 32.648 150.107 32.856 149.563 33C149.035 33.128 148.483 33.192 147.907 33.192ZM141.091 23.256V20.376H150.043V23.256H141.091Z" fill="#485C46"/>
</svg>
